<?xml version="1.0" encoding="UTF-8" standalone="no"?>
<svg
   xmlns:dc="http://purl.org/dc/elements/1.1/"
   xmlns:cc="http://creativecommons.org/ns#"
   xmlns:rdf="http://www.w3.org/1999/02/22-rdf-syntax-ns#"
   xmlns:svg="http://www.w3.org/2000/svg"
   xmlns="http://www.w3.org/2000/svg"
   xmlns:sodipodi="http://sodipodi.sourceforge.net/DTD/sodipodi-0.dtd"
   xmlns:inkscape="http://www.inkscape.org/namespaces/inkscape"
   width="247.38962mm"
   height="252.25967mm"
   viewBox="0 0 247.38962 252.25967"
   version="1.1"
   id="svg8"
   inkscape:version="1.0.2 (e86c870879, 2021-01-15, custom)"
   sodipodi:docname="my-logo.svg">
  <defs
     id="defs2" />
  <sodipodi:namedview
     id="base"
     pagecolor="#ffffff"
     bordercolor="#666666"
     borderopacity="1.0"
     inkscape:pageopacity="0.0"
     inkscape:pageshadow="2"
     inkscape:zoom="0.35"
     inkscape:cx="828.53345"
     inkscape:cy="-129.02573"
     inkscape:document-units="mm"
     inkscape:current-layer="layer1"
     inkscape:document-rotation="0"
     showgrid="false"
     inkscape:window-width="1920"
     inkscape:window-height="1017"
     inkscape:window-x="-8"
     inkscape:window-y="307"
     inkscape:window-maximized="1" />
  <metadata
     id="metadata5">
    <rdf:RDF>
      <cc:Work
         rdf:about="">
        <dc:format>image/svg+xml</dc:format>
        <dc:type
           rdf:resource="http://purl.org/dc/dcmitype/StillImage" />
        <dc:title></dc:title>
      </cc:Work>
    </rdf:RDF>
  </metadata>
  <g
     inkscape:label="Layer 1"
     inkscape:groupmode="layer"
     id="layer1"
     transform="translate(113.38281,-182.30472)">
    <path
       style="fill:#000000;stroke-width:0.31498"
       d="M 17.896039,434.39124 C 11.38498,433.0416 6.2007076,425.85094 7.0186776,419.30412 c 0.6746293,-5.39971 3.9522764,-9.14689 9.8081634,-11.21334 5.32088,-1.87764 9.888595,-0.40855 13.48942,4.33856 2.060196,2.71599 2.79967,5.27046 2.617973,9.04347 -0.115333,2.39631 -0.320686,3.42638 -0.962985,4.8291 -1.751715,3.82629 -4.144018,6.23601 -7.430779,7.48486 -1.892786,0.71924 -4.810313,0.98464 -6.644431,0.60447 z m 5.470062,-2.75819 c 1.500931,-1.0365 3.43903,-3.76176 4.188995,-5.89049 0.72675,-2.06284 0.648178,-5.54484 -0.197918,-8.77695 -1.27675,-4.87649 -2.496767,-6.05875 -6.608121,-6.40343 -2.818791,-0.23623 -4.715298,0.28126 -6.154995,1.67936 -4.221696,4.10004 -1.509265,17.42807 4.072551,20.01141 1.574184,0.72853 3.023778,0.53736 4.699562,-0.6199 z m -65.845719,-9.72368 c -0.871133,-2.08486 -1.638285,-5.63007 -3.104805,-14.34797 -1.793753,-10.66305 -1.58728,-9.94206 -2.581329,-9.01285 -2.890035,2.70141 -8.185021,13.23938 -7.521367,14.96881 0.160343,0.41804 0.002,0.46718 -0.988728,0.30655 -1.53196,-0.24852 -5.132486,-2.02307 -5.132486,-2.52947 0,-0.21577 0.545424,-0.63275 1.212018,-0.92686 2.014661,-0.88884 5.937844,-6.14254 9.109762,-12.19924 2.084862,-3.98093 2.829878,-6.33796 2.380026,-7.52974 -0.466482,-1.23579 -0.09673,-1.70912 1.12556,-1.44066 2.251752,0.49456 3.981293,2.99073 5.099896,7.36046 0.339287,1.326 1.107331,5.34454 1.706439,8.93008 1.135716,6.79688 1.572696,9.02013 1.821952,9.2694 0.806251,0.80624 6.941902,-10.45705 7.346367,-13.48586 0.108627,-0.81238 0.375,-1.54528 0.592226,-1.62865 0.512166,-0.19642 3.574708,1.22155 4.489888,2.07903 0.725968,0.6802 0.947434,1.49914 0.405395,1.49914 -0.721244,0 -3.167714,3.06091 -6.545584,8.18949 -5.433193,8.24923 -5.806742,8.78886 -7.115785,10.2791 -0.664362,0.75637 -1.344869,1.3752 -1.512242,1.3752 -0.167411,0 -0.521616,-0.52013 -0.787203,-1.15585 z m 124.50921,-4.24055 c -1.236833,-0.71898 -2.020651,-4.49015 -1.013581,-4.87662 0.249256,-0.0956 1.361311,0.33408 2.471396,0.95485 5.641824,3.15506 8.041866,-0.72363 4.661354,-7.53331 -2.251864,-4.5361 -6.899788,-9.61196 -10.328924,-11.2799 -1.639884,-0.79758 -2.581887,-0.47697 -3.34915,1.13992 -1.308633,2.75774 0.0186,6.59592 2.876419,8.32696 1.554541,0.9411 2.467675,0.89445 4.582969,-0.23439 1.878351,-1.00234 3.357557,-1.23133 3.357557,-0.51971 0,0.70193 -1.837875,3.01719 -2.915108,3.67233 -2.456663,1.49397 -6.460242,1.44832 -8.79849,-0.10047 -3.137133,-2.07775 -3.429247,-8.50552 -0.566147,-12.45794 1.268045,-1.75049 3.493942,-3.00168 5.323744,-2.99252 3.02854,0.0149 6.956373,2.81592 10.465159,7.46225 2.755697,3.6491 4.513736,7.41403 4.507597,9.65322 -0.0075,3.16168 -2.641225,6.67791 -6.284348,8.39387 -1.677384,0.7901 -3.99212,0.97153 -4.990447,0.39126 z M -95.483391,374.20055 c -0.882999,-0.94777 -3.26891,-6.5098 -3.043946,-7.09603 0.122773,-0.32068 0.373519,-0.40837 0.73512,-0.25781 2.373857,0.98798 5.234315,0.29278 11.100434,-2.69737 5.799005,-2.95607 6.103432,-2.72263 -3.795579,-2.91027 -7.774349,-0.14732 -10.661768,-0.4032 -11.255898,-0.99732 -0.46701,-0.46697 1.28917,-2.70235 5.892347,-7.50021 5.680664,-5.92087 6.604885,-7.07359 5.891007,-7.34751 -0.791445,-0.30358 -3.92735,0.75782 -7.598709,2.57224 -4.054845,2.00396 -4.998785,2.72119 -5.083675,3.86274 -0.0335,0.46098 -0.0737,0.94442 -0.0877,1.07433 -0.0669,0.61834 -1.3211,0.12127 -2.1894,-0.8676 -1.01477,-1.15572 -2.04666,-4.05915 -1.87422,-5.27344 0.0963,-0.67839 0.21242,-0.70547 2.62064,-0.61269 1.90013,0.0733 3.25574,-0.0934 5.512143,-0.67812 6.533977,-1.69283 12.866205,-4.60217 14.016653,-6.44004 0.899667,-1.43722 1.961833,-1.64625 2.888807,-0.5686 1.034972,1.20323 0.961349,2.84024 -0.229538,5.10402 -1.345464,2.55774 -3.542418,5.18441 -9.272115,11.08581 -2.724223,2.80584 -4.744873,5.10149 -4.490335,5.10149 0.254466,0 4.345171,-0.35379 9.090268,-0.78616 9.719362,-0.88564 11.10813,-0.9343 12.529039,-0.43898 1.479355,0.5157 2.34502,2.38652 2.374595,5.13181 0.02232,2.22459 -0.499144,3.17634 -0.889957,1.61924 -0.279389,-1.11385 -1.393455,-1.05656 -5.377315,0.27641 -6.094542,2.03933 -12.638972,5.46192 -15.118962,7.90678 -0.786571,0.77541 -1.494645,1.40986 -1.573514,1.40986 -0.07887,0 -0.425372,-0.30283 -0.770016,-0.67261 z M 114.50438,362.56947 c -1.67094,-0.40357 -3.35432,-1.54721 -5.04449,-3.42709 -3.87051,-4.30492 -3.58253,-9.59183 0.78262,-14.36799 1.96745,-2.15268 3.70551,-3.10819 5.2099,-2.86408 1.55986,0.25299 4.8932,1.8826 7.15953,3.49978 2.4649,1.7589 3.3082,3.46865 3.3082,6.70698 0,4.64309 -1.59826,7.40592 -5.36631,9.27643 -2.58672,1.28407 -4.25726,1.60881 -6.04945,1.17597 z m 7.70422,-5.68867 c 1.36131,-0.69021 1.82165,-1.40766 1.82165,-2.83891 0,-2.28129 -5.85581,-6.43837 -10.17452,-7.22297 -5.52737,-1.00413 -7.21438,3.97288 -2.7223,8.03123 3.08625,2.78821 7.85619,3.6628 11.07517,2.03065 z M 4.9675956,352.94021 c -0.7795767,-0.0737 -2.61682,-0.35231 -4.082782,-0.61984 -5.942644,-1.08381 -4.0709893,-1.32075 10.5398604,-1.33437 7.912998,-0.007 12.023086,0.0934 11.550354,0.28275 -0.403646,0.16182 -2.175413,0.58968 -3.937246,0.95089 -3.151791,0.64608 -10.7409031,1.03474 -14.0701864,0.72057 z m -10.7881133,-2.52795 c -1.083112,-0.44925 -1.1811773,-0.59329 -1.1811773,-1.73527 v -1.24531 l 5.9058879,0.13133 c 3.2482567,0.0722 6.2939093,0.23846 6.7681654,0.37016 0.672434,0.18638 0.908856,0.1176 1.0738119,-0.3125 0.3139881,-0.81782 -0.3188253,-1.58806 -1.1898827,-1.44851 -0.4104173,0.0658 -3.5810332,0.20759 -7.0458085,0.3151 l -6.2996007,0.19531 -0.096733,1.33866 c -0.1060206,1.46663 -0.1316973,1.4913 -1.0466166,1.00171 -0.472434,-0.25297 -0.5445314,-0.43944 -0.2886907,-0.74751 0.423364,-0.51012 0.1387653,-1.3205 -0.5579247,-1.5878 -0.3240333,-0.12426 -0.7127253,0.0335 -1.0184543,0.40942 -0.44628,0.55111 -0.576601,0.56745 -1.339622,0.16778 l -0.845277,-0.44287 0.785678,-1.24456 c 0.759227,-1.20272 0.785642,-1.4275 0.785642,-6.68959 v -5.44503 l -3.497664,-3.45941 c -1.923737,-1.90268 -3.701084,-3.92896 -3.949746,-4.50284 -0.374294,-0.86395 -0.598885,-1.02646 -1.305768,-0.94495 -1.328909,0.15328 -1.333076,1.33789 -0.0075,2.00202 0.573774,0.2872 2.566931,2.02947 4.429249,3.87132 l 3.386054,3.34882 -0.0075,4.88758 c -0.0075,4.17232 -0.09747,5.08669 -0.624443,6.24827 -0.64989,1.43206 -0.646654,1.43165 -2.317415,0.27343 -0.771801,-0.53501 -0.828424,-0.6657 -0.393751,-0.90897 0.661014,-0.36979 0.653833,-1.47642 -0.01113,-1.73162 -0.285343,-0.1094 -0.914176,-0.0498 -1.39725,0.13244 -0.676006,0.2552 -1.028126,0.22657 -1.528462,-0.12389 -0.546912,-0.38307 -0.650112,-0.79059 -0.650112,-2.56708 v -2.11172 l -5.354696,-5.34774 -5.35466,-5.3477 v -1.81891 c 0,-1.00036 0.164063,-2.08165 0.364584,-2.40286 0.737389,-1.18069 -0.585604,-2.47135 -1.547398,-1.50957 -0.414734,0.41473 -0.438282,0.64796 -0.133186,1.31783 0.20387,0.44765 0.36384,1.40963 0.354912,2.13776 -0.01488,1.31975 -0.0186,1.31581 -1.110865,-1.27768 -0.60227,-1.43081 -1.179839,-3.02541 -1.283484,-3.54354 l -0.188245,-0.94199 h 1.771767 1.771766 v -1.98439 c 0,-1.0914 0.155879,-2.14021 0.346355,-2.33065 0.577642,-0.57765 0.02232,-1.66961 -0.849852,-1.66961 -0.920352,0 -1.317228,0.79382 -0.806028,1.61235 0.20052,0.32106 0.364582,1.15286 0.364582,1.84819 v 1.26417 h -1.538208 c -1.39059,0 -1.552607,-0.0755 -1.688694,-0.78747 -0.147693,-0.77214 0.06063,-0.91652 1.258262,-0.87206 0.502009,0.0186 0.495499,-0.0647 -0.09449,-1.20551 -0.393192,-0.76038 -0.466072,-1.84438 -0.374888,-5.57527 0.06213,-2.54725 0.227678,-4.95031 0.36756,-5.34011 0.228794,-0.63768 0.155877,-0.7087 -0.727569,-0.7087 -0.86198,0 -0.981141,-0.10561 -0.977383,-0.86619 0.0026,-0.47641 0.08966,-1.18512 0.194198,-1.57489 0.188616,-0.70405 0.22991,-0.7087 6.295322,-0.7087 h 6.105398 v -2.89123 c 0,-1.59015 0.17485,-3.37496 0.388765,-3.96626 0.347099,-0.95979 0.322917,-1.12311 -0.223587,-1.52278 -0.712129,-0.52075 -1.09245,-0.45063 -1.557852,0.2872 -0.24256,0.38438 -0.226935,0.70478 0.05618,1.15815 0.232143,0.37166 0.391408,1.71772 0.391408,3.30839 v 2.68162 h -5.512138 c -3.031701,0 -5.511393,-0.10646 -5.510426,-0.23624 9.68e-4,-0.12983 0.149554,-0.76778 0.329985,-1.41741 l 0.328127,-1.18118 h 3.922439 3.922476 v -0.82965 c 0,-0.45633 0.169272,-1.39479 0.376267,-2.08554 0.331845,-1.10784 0.309896,-1.30454 -0.188246,-1.66856 -1.18631,-0.86741 -2.041669,0.2965 -1.288394,1.75324 0.258557,0.50011 0.470276,1.19986 0.470276,1.55495 0,0.61168 -0.18192,0.64558 -3.464813,0.64558 -1.905621,0 -3.464775,-0.12053 -3.464775,-0.26787 0,-0.14732 0.153274,-0.70733 0.340402,-1.24431 0.314362,-0.90178 0.464734,-0.98359 1.968606,-1.07068 l 1.628276,-0.0945 0.09561,-1.84888 0.09561,-1.84885 2.739252,0.19307 c 1.506551,0.10597 3.16444,0.22954 3.684159,0.27382 0.857925,0.0733 0.944941,-0.007 0.944941,-0.86407 0,-0.85896 -0.08594,-0.93716 -0.944941,-0.8593 -0.519719,0.0472 -2.397772,0.16964 -4.173482,0.27195 l -3.228539,0.18639 v 1.69665 c 0,1.67206 -0.01488,1.69669 -0.937168,1.69669 -0.891965,0 -0.921318,-0.0417 -0.608668,-0.86619 0.180804,-0.47641 0.84483,-1.82295 1.475894,-2.99234 l 1.147436,-2.12611 h 4.34346 4.343422 v -5.13539 -5.13539 l 1.038692,-1.00673 c 0.571281,-0.55369 1.150821,-1.00674 1.287911,-1.00674 0.219123,0 0.179688,0.98884 -0.183408,4.56724 -0.08297,0.81833 0.01488,0.95792 0.743305,1.042 0.63099,0.0729 0.89271,-0.0715 1.054987,-0.58293 0.118673,-0.37418 0.0599,-0.83571 -0.13058,-1.02627 -0.191221,-0.19122 -0.344495,-1.41026 -0.342263,-2.72437 0.0037,-2.36678 0.0075,-2.38147 1.09803,-3.0868 0.601749,-0.3898 1.237837,-0.7087 1.413506,-0.7087 0.192339,0 0.319571,1.12879 0.319571,2.83483 v 2.83482 h 1.259897 1.259935 v 1.35442 c 0,0.74491 -0.153645,1.50815 -0.341518,1.69606 -0.187872,0.18788 -0.294271,0.67691 -0.236235,1.08669 0.126116,0.89226 1.229578,1.16291 1.823515,0.44728 0.3299849,-0.39772 0.3110116,-0.67983 -0.1064,-1.55897 -0.280135,-0.59032 -0.509339,-1.72518 -0.509339,-2.52187 v -1.44858 h -1.259898 -1.259935 v -2.77678 -2.77684 l 1.224071,-0.68795 c 0.673216,-0.37837 1.304579,-0.68798 1.403017,-0.68798 0.09859,0 0.220983,0.95678 0.271949,2.12613 l 0.09301,2.12611 1.1811771,0.0979 1.1811774,0.0978 v 3.22531 c 0,1.92452 -0.1395094,3.36492 -0.3463547,3.57154 -0.190476,0.19048 -0.249256,0.65209 -0.1305801,1.02627 0.3113841,0.98077 1.852384,0.78099 1.9995561,-0.2593 0.05804,-0.40978 -0.04836,-0.89878 -0.2362347,-1.08668 -0.2053574,-0.20536 -0.3415187,-1.76285 -0.3415187,-3.90094 v -3.55927 h -1.2742953 -1.274332 l 0.093,-2.12337 0.093013,-2.12332 2.3623547,-1.00957 c 1.2992953,-0.55525 3.6755646,-1.38549 5.2805893,-1.84498 2.7911874,-0.79907 3.1545807,-0.82816 8.3470006,-0.6683 2.9857934,0.0919 5.7759763,0.21242 6.2003453,0.26748 0.519421,0.0673 0.879725,-0.10561 1.10242,-0.5298 0.491705,-0.9362 2.669907,-0.73158 2.713583,0.25483 0.0186,0.37951 0.09896,2.28461 0.182292,4.23353 l 0.151786,3.54354 h 5.685984 5.685984 l 1.846209,-1.59937 1.846171,-1.59941 1.302644,0.7321 1.302606,0.73215 -1.531142,1.36001 c -0.842151,0.74803 -2.002048,1.56057 -2.577608,1.80565 -0.812278,0.34599 -1.023737,0.6057 -0.944941,1.16091 0.07923,0.55942 0.304315,0.71525 1.032255,0.71525 0.733224,0 0.970204,-0.16704 1.116632,-0.78743 0.102312,-0.4331 0.321429,-0.78943 0.486682,-0.79185 0.165551,-0.002 0.938618,-0.67983 1.718196,-1.50539 l 1.417412,-1.50097 1.01823,0.71793 c 0.560047,0.39487 1.020687,0.87228 1.023701,1.06094 0.0075,0.4513 -3.117713,3.27924 -3.623555,3.27924 -0.215775,0 -0.466408,0.28348 -0.557033,0.62999 -0.09747,0.37258 -0.429613,0.62995 -0.813096,0.62995 -0.826788,0 -1.353648,0.92828 -0.943156,1.6618 0.512389,0.91559 1.477532,0.65454 1.974109,-0.53401 0.247398,-0.59241 0.780731,-1.25405 1.184899,-1.47039 0.404205,-0.21614 1.350634,-1.07816 2.103239,-1.91522 0.752606,-0.83709 1.502719,-1.52194 1.666931,-1.52194 0.484711,0 2.165443,1.34914 2.133857,1.71287 -0.02232,0.27121 -2.150227,2.27378 -5.456148,5.13795 -0.25,0.21652 -0.659822,0.39372 -0.910827,0.39372 -0.841072,0 -1.295351,0.87756 -0.901601,1.74174 0.41172,0.90361 0.809898,0.98188 1.379318,0.27121 0.62076,-0.77482 3.189143,-3.60046 3.645915,-4.01121 0.222842,-0.20015 1.008409,-0.96448 1.745984,-1.69822 l 1.341036,-1.33415 1.93929,1.9641 1.939289,1.96411 0.219865,4.80343 0.219867,4.80346 h 2.887245 2.887281 l 0.530805,1.11314 c 0.292039,0.6122 0.530804,1.17916 0.530804,1.2599 0,0.0808 -2.19699,0.14694 -4.882188,0.14694 H 42.76424 v -5.15756 c 0,-3.69799 0.129094,-5.52356 0.456289,-6.45079 0.403089,-1.14252 0.400483,-1.34903 -0.02232,-1.77202 -1.111274,-1.11127 -2.278279,-0.13021 -1.726826,1.45156 0.206473,0.59238 0.348215,3.41359 0.348215,6.93614 l -3.7e-5,5.93762 h 3.259789 c 1.79286,0 4.336912,0.0912 5.653395,0.20238 l 2.393605,0.20238 0.488765,1.22146 c 0.950895,2.37661 1.272585,2.26872 -6.047145,2.02799 -3.594723,-0.11833 -7.031931,-0.24442 -7.638294,-0.28088 -0.918082,-0.0551 -1.118789,0.0491 -1.200262,0.62147 -0.132068,0.9279 1.023626,1.584 1.740516,0.98809 0.573997,-0.47712 13.528259,-0.81116 13.964123,-0.36012 0.138021,0.14286 0.349331,0.79617 0.469904,1.45217 l 0.219122,1.19263 -7.203025,-0.12389 c -3.961651,-0.068 -7.538814,-0.17968 -7.949195,-0.24777 -1.060344,-0.17596 -1.637911,0.77702 -0.911422,1.5035 0.431585,0.4316 0.677084,0.46831 1.254578,0.18751 0.425372,-0.20685 3.63014,-0.41637 7.863182,-0.51437 l 7.145176,-0.16555 0.184152,1.63732 c 0.101187,0.90056 0.21689,2.27519 0.256697,3.05477 l 0.07292,1.41741 -6.063366,0.0855 -6.063402,0.0855 v -0.75491 c 0,-0.41519 -0.08855,-1.19781 -0.196802,-1.73918 l -0.196801,-0.9843 H 38.433586 33.55136 l 0.217262,-1.02369 c 0.565849,-2.66727 0.568752,-2.97405 0.02976,-3.18082 -0.548327,-0.21057 -1.743232,0.26302 -1.743232,0.69059 0,0.13392 0.207961,0.51882 0.462463,0.85509 0.254466,0.33632 0.466928,1.28472 0.472471,2.1076 l 0.01114,1.49617 h 4.866489 4.866452 l 0.09449,1.81113 0.09449,1.81112 h 6.550346 6.550383 l -0.09338,1.25994 -0.09338,1.25993 h -3.307297 c -1.819014,0 -4.866452,-0.0707 -6.772073,-0.15736 l -3.464812,-0.15737 -0.09561,0.82593 c -0.110866,0.95749 0.611348,1.38911 1.515293,0.90532 0.327381,-0.17522 3.099225,-0.31398 6.276796,-0.31398 h 5.690374 v 1.2599 1.25993 h -7.717051 -7.717015 v -2.50503 c 0,-1.37775 0.162575,-2.86183 0.361236,-3.29795 0.445946,-0.9788 -0.121647,-1.83583 -1.121207,-1.69302 -0.523327,0.0748 -0.64003,0.28684 -0.571876,1.03892 0.04725,0.51969 0.169643,2.39777 0.27195,4.17348 l 0.186384,3.22854 h 8.021293 8.021331 l -0.219494,1.0237 c -0.120913,0.56302 -0.289436,1.14156 -0.374518,1.28568 -0.08519,0.14397 -3.718384,0.22285 -8.073712,0.17522 -7.751612,-0.0848 -7.920734,-0.0733 -8.012699,0.55301 -0.144345,0.98304 0.720351,1.54666 1.693009,1.10347 0.935009,-0.42601 13.992472,-0.5131 13.992472,-0.0934 0,0.14733 -0.158855,0.72408 -0.353423,1.28156 l -0.353424,1.01353 -4.765112,-0.14657 c -2.620801,-0.0804 -5.100865,-0.19643 -5.511282,-0.25781 -1.059004,-0.15811 -1.633595,0.79364 -0.913765,1.51346 0.45997,0.45994 0.656325,0.47795 1.412092,0.12947 1.030397,-0.47515 6.743948,-0.83284 8.38517,-0.52496 l 1.135568,0.21316 -0.625559,1.58707 c -0.344123,0.87287 -0.884897,2.0926 -1.201899,2.71045 l -0.57634,1.12345 -0.197918,-0.99056 c -0.186756,-0.93333 -0.27939,-0.99059 -1.604802,-0.99059 -0.773699,0 -1.49431,-0.14174 -1.601379,-0.31511 -0.268601,-0.43445 -0.873847,-0.39408 -1.554578,0.10377 -0.47448,0.34709 -0.509859,0.53578 -0.206473,1.10241 0.37779,0.70596 1.418194,0.92381 1.7612,0.36869 0.107147,-0.17338 0.682405,-0.31512 1.278499,-0.31512 h 1.083856 v 1.55429 c 0,1.37764 -0.213169,1.8698 -1.876268,4.33099 -1.031958,1.52721 -2.589513,3.55629 -3.461278,4.50908 l -1.58501,1.73242 0.186756,-1.29238 c 0.210939,-1.45822 -0.357887,-1.97151 -1.504243,-1.35796 -0.481772,0.2578 -0.586496,0.53222 -0.43445,1.13805 0.686274,2.73423 0.622545,2.97017 -1.140776,4.22575 l -0.894161,0.63672 v -4.58865 -4.58866 h 2.977498 c 1.637614,0 3.343755,0.16703 3.791413,0.3709 0.677047,0.30841 0.903721,0.28089 1.348141,-0.16331 0.719793,-0.7198 0.145089,-1.67152 -0.913767,-1.51359 -0.410379,0.0611 -2.376193,0.20276 -4.368458,0.3151 l -3.62229,0.20388 -0.08594,5.41634 -0.08594,5.41634 -0.845277,0.66491 -0.845277,0.66488 -0.247396,-0.66896 c -0.185268,-0.50119 -0.465328,-0.64395 -1.115998,-0.56909 -0.798105,0.0919 -0.86425,0.20275 -0.815924,1.36786 0.04836,1.16545 -0.04725,1.32533 -1.181178,1.97801 l -1.233782,0.71009 v -0.80792 c 0,-0.44438 0.218378,-1.14134 0.485455,-1.54885 0.439212,-0.67031 0.437053,-0.78926 -0.02232,-1.24881 -0.642226,-0.64223 -1.216595,-0.64551 -1.744089,-0.011 -0.324033,0.39059 -0.332589,0.62752 -0.03869,1.09814 0.206102,0.32998 0.374778,1.14275 0.374778,1.80595 0,1.07024 -0.125372,1.26559 -1.113134,1.73669 -0.612203,0.29204 -1.179169,0.53081 -1.259898,0.53081 -0.311385,0 -0.128349,-3.67222 0.199405,-4.00005 0.491109,-0.49107 0.0372,-1.6696 -0.6439,-1.6696 -0.951192,0 -1.429429,0.83288 -1.008595,1.75654 0.19866,0.43613 0.361235,1.62154 0.361235,2.6343 0,1.83282 -0.0037,1.84362 -1.181177,2.31958 -0.71492,0.28943 -1.299296,0.36496 -1.480434,0.19122 -0.170388,-0.16332 -5.973745,-0.28684 -13.469703,-0.28684 -9.9820849,0 -13.326733,-0.0952 -13.8160196,-0.39371 -0.5643613,-0.34411 -0.7402534,-0.28459 -1.39803,0.47248 -0.413878,0.47641 -0.794682,0.85889 -0.8463193,0.84997 -0.051713,-0.007 -0.6253721,-0.23662 -1.2750393,-0.50618 z m 17.8751787,-2.62741 c 0.119053,-0.19272 2.616856,-0.31511 6.441974,-0.31511 5.406185,0 6.273076,-0.0669 6.438515,-0.49825 0.105287,-0.27418 0.191222,-1.85183 0.191222,-3.50626 v -3.008 l 1.181177,0.18935 c 0.649666,0.10414 1.445054,0.22918 1.767563,0.2779 0.720127,0.1083 1.319644,-0.73734 1.03977,-1.46666 -0.175223,-0.45648 -0.481399,-0.50684 -2.018754,-0.33184 -3.127832,0.35565 -2.914699,0.0655 -2.914699,3.96863 v 3.45675 l -5.905888,-0.13542 c -3.24822,-0.0744 -6.331111,-0.18676 -6.850829,-0.24925 -0.863841,-0.10414 -0.953424,-0.0261 -1.04364,0.9097 -0.0878,0.90872 -0.01114,1.02371 0.690105,1.02371 0.433855,0 0.876453,-0.14174 0.983521,-0.3151 z m -12.79808673,-3.71307 c 3.27470793,-0.0759 5.13460663,0.011 5.74870733,0.26377 0.7114599,0.29464 1.0099353,0.29128 1.3799879,-0.0149 0.5132074,-0.42593 0.6344495,-1.43721 0.2042414,-1.70314 -0.1473226,-0.0912 -2.0020133,-0.011 -4.1213613,0.17746 -2.77693993,0.2474 -4.5946506,0.2474 -6.5069673,6.4e-4 -2.927312,-0.37799 -3.5927893,-0.26712 -3.5927893,0.59836 0,0.7093 0.9297639,1.30428 1.5748913,1.00785 0.2600453,-0.11944 2.6508594,-0.26748 5.31332668,-0.32924 z m 17.60151673,0.0261 4.488475,-0.125 v -3.63743 -3.63743 l 2.756105,0.18118 c 1.515814,0.0997 3.252164,0.22024 3.858489,0.26748 0.988953,0.0773 1.10242,0.004 1.10242,-0.70115 0,-0.88386 0.475931,-0.84498 -5.43338,-0.44372 l -3.228576,0.21913 v 3.46819 3.4682 l -4.016004,-0.22916 c -2.208783,-0.12612 -4.437321,-0.2541 -4.952277,-0.28497 -0.678535,-0.0405 -0.967709,0.1012 -1.050337,0.51387 -0.219122,1.09379 0.190476,1.56983 1.124332,1.30752 0.474258,-0.13319 2.882111,-0.29836 5.350753,-0.36718 z m -32.227547,-3.62327 c 0.321802,-0.45961 0.381437,-0.80187 0.175224,-1.00797 -0.171502,-0.1715 -0.312128,-0.77058 -0.312128,-1.33099 0,-0.56038 -0.125745,-1.34707 -0.279018,-1.74814 -0.153647,-0.40104 -2.419982,-2.85533 -5.036467,-5.45392 l -4.7573,-4.72471 -0.0032,-9.37067 -0.0032,-9.37065 h 4.099003 c 2.698256,0 4.31113,0.13244 4.719651,0.38753 0.845574,0.52809 1.742413,-0.31102 1.41957,-1.32816 -0.182664,-0.57553 -0.365328,-0.65633 -1.056028,-0.46712 -0.459376,0.12575 -2.855027,0.29167 -5.32367,0.36905 l -4.488475,0.14025 v 10.13883 10.13882 l 4.724711,4.71681 c 4.592195,4.58457 4.72471,4.75399 4.72471,6.04086 0,0.72821 -0.141741,1.41161 -0.315105,1.51869 -0.464621,0.2872 -0.383259,0.98917 0.18006,1.55242 0.662837,0.66282 0.953313,0.62473 1.531625,-0.20089 z m 9.7851743,0.38087 c 0.2682293,-0.434 10.0926506,-0.41433 10.9076813,0.0223 0.7928954,0.42437 1.606662,-0.16108 1.4705007,-1.05818 -0.090027,-0.59428 -0.3771954,-0.61898 -7.18100073,-0.61797 -6.37210927,9.3e-4 -7.09763187,0.0543 -7.19182787,0.52783 -0.2101934,1.05658 1.4562153,1.99765 1.9946466,1.12648 z m 41.1049777,-5.82713 v -5.51217 l 2.913584,0.002 c 1.929765,0.001 3.209343,0.15626 3.789516,0.45886 0.481772,0.25112 1.073179,0.38121 1.314288,0.2887 0.685939,-0.2634 0.872434,-1.1291 0.354911,-1.64677 -0.390662,-0.39067 -0.679391,-0.4079 -1.701788,-0.10157 -0.677197,0.20275 -2.596806,0.36905 -4.265782,0.36905 l -3.034528,4e-5 v 5.38818 c 0,4.78408 -0.0558,5.36694 -0.498253,5.19717 -0.27381,-0.10523 -0.911832,-0.19121 -1.417413,-0.19121 H 32.05607 v -6.6146 -6.61459 h 3.154061 c 1.843121,0 3.396806,0.15179 3.738064,0.36458 0.81425,0.50853 1.612354,0.11576 1.612354,-0.79357 0,-0.80736 -0.753462,-1.30933 -1.367116,-0.91079 -0.200893,0.13059 -2.066186,0.30804 -4.145059,0.39473 l -3.779768,0.15736 -0.09672,5.66966 c -0.05319,3.1183 -0.0075,6.55555 0.103794,7.63829 l 0.200521,1.96863 h 2.022324 2.022287 z m -24.433485,4.70221 c 0.601527,-0.60153 0.602755,-0.75343 0.01114,-1.53386 -0.254466,-0.33631 -0.462464,-0.9387 -0.462464,-1.33866 l 3.7e-5,-0.72726 H 3.5488546 -3.5382107 v -5.51214 -5.51218 h -0.9492207 c -0.5220987,0 -1.239436,-0.17708 -1.5940873,-0.39371 -0.5499267,-0.33557 -0.7129847,-0.30171 -1.1072933,0.23027 -0.2544641,0.34302 -0.4213927,0.83922 -0.3712801,1.10243 0.1104871,0.58069 1.4418174,0.82228 1.916372,0.34784 0.9932307,-0.99323 1.1446074,-0.38679 1.2316987,4.93428 l 0.086307,5.27593 7.1658233,0.0848 c 5.9457313,0.0704 7.1657851,0.16109 7.1657851,0.53263 0,0.24628 -0.1417411,0.53557 -0.3151039,0.64263 -0.3523079,0.21763 -0.4308419,1.82653 -0.104907,2.15235 0.353796,0.35379 0.9800249,0.23512 1.4999279,-0.28497 z m 3.652499,0.011 c 0.30878,-0.37203 0.317336,-0.66273 0.03869,-1.27474 -0.198661,-0.43613 -0.361236,-1.99108 -0.361236,-3.45544 v -2.66254 H 7.3300996 0.24303426 v -5.32427 -5.32426 l -2.91358336,-0.16592 c -1.6024586,-0.0912 -3.2493739,-0.21131 -3.6597533,-0.26674 -1.0726213,-0.14473 -1.6282772,0.80959 -0.8970253,1.54084 0.456548,0.45655 0.657292,0.48456 1.171542,0.16333 0.3415186,-0.21318 1.6112753,-0.38758 2.8221394,-0.38758 h 2.2014919 l 0.086307,5.27589 0.0863069,5.27595 7.165822,0.0848 7.1658225,0.0848 v 1.94037 c 0,1.06719 -0.166666,2.40175 -0.370907,2.96568 -0.293155,0.81067 -0.284971,1.12852 0.03869,1.51852 0.517895,0.624 1.088059,0.62805 1.599853,0.011 z m 3.300638,0.0476 c 0.530284,-0.38771 0.553646,-0.56897 0.217634,-1.69017 -0.206846,-0.69074 -0.376266,-3.04663 -0.376266,-5.23536 V 328.8842 H 10.794651 3.7075856 v -5.30574 -5.3057 L -2.513295,318.0272 c -3.4214714,-0.13505 -6.716938,-0.2634 -7.3233013,-0.28534 -0.8934167,-0.0335 -1.1202397,0.0852 -1.1963557,0.61796 -0.142858,0.99956 0.714213,1.56712 1.692971,1.12117 0.5023447,-0.22879 2.865556,-0.36123 6.4477787,-0.36123 h 5.6548465 v 5.19717 5.19719 h 7.0870653 7.0870645 v 4.11544 c 0,2.26351 -0.146577,4.38964 -0.325893,4.72472 -0.226191,0.42294 -0.222843,0.80186 0.01114,1.23921 0.398699,0.74494 0.624667,0.77611 1.418529,0.19568 z m -26.7586757,-1.7481 c 0.1644347,-0.16109 0.7953134,-0.33817 1.4016767,-0.39371 l 1.1024194,-0.1012 0.1841532,-3.6223 c 0.101187,-1.99226 0.2779014,-3.90577 0.3928194,-4.25224 0.1250013,-0.3776 0.011136,-0.88233 -0.2831094,-1.25993 -0.4881339,-0.625 -0.496876,-0.624 -1.1152926,0.13058 -0.3970241,0.48449 -0.5356034,0.9419 -0.3816973,1.25993 0.1328132,0.27456 0.2898067,1.95217 0.3489587,3.72788 0.09896,2.97865 0.06176,3.22854 -0.4798361,3.22854 -0.3229174,0 -0.740962,-0.15365 -0.9288707,-0.34152 -0.50826,-0.50826 -1.8092296,-0.21503 -1.9332626,0.43553 -0.200893,1.05424 0.9806193,1.88412 1.6921906,1.1885 z m 0.1413694,-4.58941 c 0.2890627,-0.34821 0.305804,-0.69974 0.063987,-1.33865 -0.18006,-0.47657 -0.4053207,-1.22657 -0.500224,-1.66667 -0.1008199,-0.46785 -2.1534257,-2.82274 -4.9417867,-5.66965 l -4.769242,-4.86947 0.20387,-2.36235 c 0.394085,-4.56467 0.436422,-4.24082 -0.569086,-4.3557 -0.872658,-0.0997 -0.89762,-0.0655 -0.686608,0.94494 0.120533,0.5766 0.293899,2.28438 0.385343,3.79502 l 0.166294,2.74662 4.693721,4.71266 c 3.549224,3.56355 4.6937207,4.90536 4.6937207,5.50302 0,0.43471 -0.1417414,0.87798 -0.3151047,0.98505 -0.353796,0.21875 -0.427902,1.5145 -0.104907,1.83738 0.3675606,0.36756 1.2742959,0.2262 1.67969,-0.26227 z M 21.987154,333.2738 c 0.25707,-0.47995 0.252234,-0.76556 -0.0186,-1.09134 -0.246652,-0.29725 -0.423512,-3.11239 -0.542076,-8.6361 l -0.175967,-8.19491 7.686024,-0.0844 7.685987,-0.0844 0.08111,-2.9923 c 0.04464,-1.64577 0.243304,-3.3064 0.441221,-3.6903 0.4532,-0.87846 -0.152159,-1.73981 -1.124742,-1.60082 -0.631734,0.0904 -0.652977,0.23921 -0.542002,3.79495 l 0.115333,3.70105 H 28.15465 c -4.091376,0 -7.467572,0.0372 -7.502728,0.0789 -0.03348,0.0432 -0.141742,3.9766 -0.236608,8.74071 -0.09524,4.76408 -0.287203,8.89172 -0.426712,9.17256 -0.164063,0.32999 -0.07254,0.69193 0.259301,1.0237 0.694533,0.69453 1.320129,0.64524 1.738768,-0.13691 z m 3.454024,0.0186 c 0.234003,-0.43735 0.237352,-0.81623 0.01114,-1.23921 -0.19308,-0.3605 -0.325893,-3.12624 -0.325893,-6.77208 v -6.16285 h 2.977498 c 1.637614,0 3.343756,0.16705 3.791412,0.37092 1.054801,0.48061 1.919275,-0.2407 1.57783,-1.31656 -0.193452,-0.6093 -0.372768,-0.67538 -1.371021,-0.50507 -0.631735,0.10793 -2.672289,0.28722 -4.534607,0.39904 l -3.386054,0.20313 -0.0026,4.75532 c -0.0012,2.61541 -0.139882,5.94964 -0.307666,7.40939 -0.216145,1.88025 -0.204241,2.77564 0.04092,3.07106 0.499666,0.60201 1.140478,0.51276 1.528871,-0.2128 z m 3.586204,-0.0777 c 0.256325,-0.40711 0.244792,-0.71305 -0.04502,-1.17689 -0.263393,-0.42188 -0.391444,-2.06962 -0.391444,-5.04079 v -4.41399 l 2.283635,-0.0476 c 2.994983,-0.0625 4.091339,0.0383 4.552091,0.41771 0.208334,0.17151 0.677158,0.2169 1.042003,0.1012 0.494458,-0.157 0.638692,-0.42427 0.566333,-1.04971 -0.08408,-0.72746 -0.222843,-0.82604 -1.042004,-0.74063 -0.519717,0.0543 -2.610383,0.17225 -4.645952,0.26266 l -3.701047,0.16406 v 4.65131 c 0,2.58348 -0.154763,5.09524 -0.348216,5.64985 -0.573959,1.64644 0.835195,2.64268 1.72943,1.2227 z m -37.5981277,-7.01653 c 0.6798374,-0.81916 -0.4482147,-2.65387 -3.4985173,-5.69004 l -2.807073,-2.79405 v -1.70606 -1.70611 l 6.0633656,0.21986 c 3.3348646,0.1209 6.5803313,0.29911 7.2121767,0.39595 0.98151263,0.1503 1.18028529,0.0766 1.36469794,-0.50428 0.29575873,-0.93122 -0.38627391,-1.70833 -1.23158724,-1.40368 -0.358632,0.1291 -3.699374,0.31622 -7.4240453,0.41562 l -6.7720727,0.1808 -0.211681,1.8899 -0.211683,1.88988 2.106775,2.20483 c 4.1219569,4.31389 4.2985563,4.53836 3.891078,4.94585 -0.483223,0.48323 -0.482924,1.27969 6.33e-4,1.76324 0.5108639,0.51087 1.038878,0.47549 1.5179333,-0.10156 z m 26.0777587,-0.36532 c 0.116814,-0.81995 -0.843119,-1.4638 -1.53222,-1.02784 -0.250372,0.15849 -2.333597,0.29055 -4.628988,0.29316 l -4.1735187,0.004 v -4.07616 c 0,-2.37768 0.1313253,-4.1573 0.3151053,-4.27084 0.6166679,-0.38113 0.3467266,-1.6506 -0.391854,-1.84375 -1.07396,-0.28088 -1.707778,0.5029 -1.2389147,1.53196 0.2280507,0.50011 0.370908,2.50837 0.370908,5.20883 v 4.39491 l 4.4884751,0.004 c 2.468679,0.002 4.701085,0.14508 4.960945,0.31659 0.762501,0.50347 1.72225,0.2221 1.830248,-0.53654 z m -0.09785,-3.72233 c 0,-0.85967 -0.08519,-0.93695 -0.944942,-0.85618 -0.519718,0.0487 -2.043455,0.17002 -3.386054,0.26972 l -2.441075,0.1808 v -5.38803 -5.38803 H 7.2116842 c -4.9920099,0 -5.3034319,0.0956 -5.484198,1.68725 -0.081473,0.71778 -0.2380959,1.58858 -0.3482146,1.93504 -0.3087813,0.9736 0.2284227,1.53837 1.2258567,1.28802 0.7442353,-0.18676 0.8274573,-0.32514 0.641296,-1.0663 -0.11756,-0.46841 -0.2901787,-1.31234 -0.3833713,-1.87536 l -0.1696427,-1.02371 h 3.6447606 3.6447606 l -0.066593,5.27595 -0.06696,5.27593 2.8324455,0.0923 c 1.557852,0.0507 2.973629,0.23326 3.146136,0.4058 0.17262,0.17263 0.598811,0.2727 0.947324,0.22285 0.473847,-0.068 0.633632,-0.32887 0.633632,-1.03579 z m -38.933023,-0.41069 c 0.186012,-0.34708 0.191966,-0.74535 0.01488,-1.02365 -0.158483,-0.25038 -0.290179,-2.5541 -0.293155,-5.11898 l -0.0037,-4.66347 4.016004,0.14471 c 2.208782,0.0797 4.441226,0.19382 4.960945,0.25372 0.761236,0.0877 0.963209,-0.0186 1.038878,-0.54843 0.139137,-0.97405 -0.722472,-1.57839 -1.600821,-1.12281 -0.40294,0.20908 -2.562132,0.39549 -5.107709,0.44121 l -4.409718,0.0793 -0.157365,5.25074 c -0.08669,2.88789 -0.25893,5.35158 -0.382628,5.47483 -0.37675,0.37497 0.364956,1.40119 1.012613,1.40119 0.334079,0 0.744607,-0.25558 0.911869,-0.56818 z m 36.37726,-3.60422 c 0.257814,-0.40944 0.241816,-0.71756 -0.06249,-1.2049 -0.509376,-0.81567 -0.547546,-5.21579 -0.0506,-5.81479 0.197173,-0.23771 0.266369,-0.72224 0.153647,-1.07704 -0.132814,-0.41849 -0.06437,-0.64506 0.194568,-0.64506 0.318081,0 0.319569,-0.0797 0.0075,-0.3911 -0.257813,-0.25782 -0.467114,-0.28162 -0.614212,-0.0695 -0.122768,0.17672 -0.54204,0.30134 -0.93181,0.27641 -0.577196,-0.0372 -0.708706,0.11907 -0.708706,0.83844 0,0.48583 0.141741,0.97095 0.315104,1.07801 0.436832,0.27009 0.395909,4.45623 -0.0558,5.7053 -0.295388,0.81692 -0.285342,1.12827 0.04985,1.53202 0.509526,0.61396 1.233187,0.51705 1.702348,-0.22804 z m 3.360571,0.2143 c 0.323662,-0.38999 0.331847,-0.70782 0.03869,-1.51853 -0.203869,-0.56391 -0.370908,-1.9064 -0.370908,-2.98331 v -1.95795 l 6.85083,0.11527 c 3.767938,0.0636 7.226649,0.22433 7.686025,0.35751 0.696355,0.20201 0.871914,0.12649 1.056066,-0.45383 0.328869,-1.03594 -0.537352,-1.80536 -1.488247,-1.32203 -0.461422,0.23438 -3.17043,0.39603 -7.580742,0.45194 -5.691379,0.0722 -6.913665,0.16779 -7.160986,0.55946 -0.164063,0.26003 -0.300224,1.43853 -0.3032,2.61927 -0.0024,1.18076 -0.151415,2.42099 -0.33073,2.75611 -0.226192,0.42294 -0.222842,0.80186 0.01114,1.2392 0.40454,0.75589 1.033447,0.8099 1.592116,0.13691 z m -47.732743,-7.81233 c -0.461198,-2.12605 -0.532478,-4.70298 -0.149926,-5.41797 0.523142,-0.97754 0.180804,-1.71054 -0.799146,-1.71054 -0.951303,0 -1.356624,0.78058 -0.837166,1.61236 0.463543,0.74225 0.487464,4.37225 0.02976,4.37225 -0.664586,0 -0.148067,1.71205 0.633296,2.09963 1.039436,0.51552 1.38036,0.22582 1.124035,-0.95573 z m 28.76552493,0.7843 c 0.23177071,-0.14695 0.37343739,-0.60536 0.31510405,-1.01887 -0.12016643,-0.85051 0.0334802,-0.83772 -5.22471068,-0.43311 l -3.2285773,0.24852 v -1.77972 -1.77974 h -1.354392 c -0.744941,0 -1.508187,-0.15365 -1.696097,-0.34152 -0.557478,-0.55751 -1.820092,-0.21205 -1.925635,0.52668 -0.133184,0.93211 0.665328,1.52764 1.470501,1.09673 0.345982,-0.18527 1.063916,-0.33669 1.595055,-0.33669 0.960492,0 0.9656266,0.007 0.9656266,1.73241 v 1.73241 l 3.3860541,0.0223 c 1.8623179,0.011 3.6695379,0.14397 4.0160039,0.29278 0.824332,0.35418 1.1703514,0.36198 1.68121539,0.0383 z M -5.269289,308.72373 c 0.2659973,-0.43025 25.499521,-0.42888 26.303577,0.001 0.405247,0.2169 0.836907,0.20461 1.372064,-0.0394 0.675931,-0.30804 0.73605,-0.45386 0.447806,-1.08654 -0.418603,-0.91867 -1.059079,-1.17407 -1.864066,-0.74327 -0.422769,0.2262 -5.014294,0.30246 -14.1514744,0.23512 -7.43911135,-0.0551 -13.5255806,-0.0759 -13.5255059,-0.0469 1.113e-4,0.0297 -0.078867,0.25892 -0.1755948,0.51059 -0.096733,0.2515 0.055433,0.68851 0.3374254,0.97073 0.5880593,0.58806 0.9766387,0.64937 1.255546,0.19791 z m 35.687299,-0.0629 c 0.904503,-0.90451 -0.152903,-2.481 -1.21388,-1.80976 -0.250372,0.15848 -0.908781,0.29056 -1.462725,0.29316 -0.993714,0.004 -1.008521,-0.0186 -1.102457,-1.64881 l -0.09524,-1.65365 -3.149783,-0.22434 c -1.732406,-0.1235 -3.557074,-0.26524 -4.054842,-0.3151 -1.201639,-0.12016 -1.83635,0.76782 -1.085456,1.51871 0.431623,0.43167 0.689659,0.45908 1.5378,0.16333 0.560529,-0.19531 2.131923,-0.35529 3.492008,-0.35529 h 2.472845 v 1.73241 c 0,1.67556 0.02976,1.73296 0.866185,1.75016 0.476414,0.011 1.36228,0.20534 1.968605,0.43488 1.456959,0.55128 1.3939,0.54729 1.826899,0.11417 z m -56.486962,-3.59332 c 0.332962,-0.33297 0.799592,-0.4448 1.361163,-0.32664 2.900042,0.61074 2.82932,0.61335 3.059677,-0.11234 0.257814,-0.81271 -0.135789,-1.31249 -0.976899,-1.23962 -0.328869,0.0297 -1.559972,0.0372 -2.735495,0.0186 -2.31641,-0.0335 -2.77958,0.29389 -2.128091,1.51109 0.421057,0.78674 0.746951,0.82071 1.419645,0.14806 z m 76.456861,-0.42724 c 0.918082,0.007 2.021284,0.2061 2.451566,0.44416 0.942004,0.52146 1.895056,0.13392 1.895056,-0.77031 0,-0.77586 -1.181513,-1.46433 -1.671728,-0.97411 -0.415255,0.41525 -4.913402,0.45279 -5.555852,0.0465 -0.6234,-0.39442 -1.591892,0.16741 -1.591892,0.92321 0,0.9253 0.926974,1.28996 1.94327,0.76441 0.47314,-0.2448 1.611462,-0.43985 2.52958,-0.43372 z M -18.341,302.73924 c -0.08669,-1.29931 -0.157367,-3.99239 -0.157367,-5.98465 0,-1.99226 0.07106,-4.75623 0.157367,-6.14213 l 0.157366,-2.51982 h -0.787464 c -0.70919,0 -0.77742,0.10939 -0.686497,1.10241 0.348959,3.80882 0.373847,12.56837 0.03944,13.76308 -0.461422,1.64814 -0.225447,2.37917 0.724518,2.24427 0.68125,-0.0967 0.703721,-0.19679 0.552605,-2.46316 z m 11.3275857,1.91176 c 0.533632,-0.9971 -0.3229173,-1.59889 -1.7907027,-1.25812 -0.6544274,0.15179 -2.430137,0.27976 -3.945951,0.28385 l -2.756106,0.007 0.002,-9.0557 c 0.0016,-8.5861 0.259672,-11.68298 0.938468,-11.26349 0.151787,0.0937 0.349703,0.0521 0.439288,-0.0934 0.25372,-0.41023 -1.036386,-1.36246 -1.928538,-1.42374 -0.64364,-0.0443 -0.814994,0.10009 -0.870426,0.73245 -0.03795,0.4331 0.07292,0.87894 0.246652,0.99073 0.195314,0.12575 0.376229,4.18461 0.474108,10.6306 l 0.158111,10.42732 3.34119,0.004 c 1.837651,0.002 3.5537986,0.1421 3.8136591,0.31026 0.7518981,0.48591 1.5259327,0.36496 1.8781648,-0.29316 z m 12.9142332,0 c 0.409004,-0.76426 -0.4290554,-1.74666 -1.2100834,-1.41851 -0.2808786,0.11797 -1.9634706,0.28647 -3.73914387,0.37442 l -3.22857603,0.15997 v -1.74369 -1.74367 l -4.7672327,-0.22991 -4.7672329,-0.22992 0.154762,-4.30346 c 0.08855,-2.46563 0.318081,-4.60842 0.536868,-5.01746 0.477792,-0.89282 -0.0651,-1.69598 -1.051489,-1.55509 -0.526415,0.0751 -0.638171,0.28236 -0.560492,1.03891 0.05319,0.51971 0.172247,3.17735 0.263765,5.90589 l 0.167039,4.96094 h 4.539516 4.539554 v 1.88989 1.88988 l 3.38605523,0.004 c 1.86231667,0.002 3.59866667,0.14212 3.85852477,0.31027 0.7518613,0.4859 1.5258959,0.36495 1.8781659,-0.29315 z m 3.2533534,-0.33706 c -0.0372,-0.43311 -0.1599707,-1.60249 -0.2752974,-2.59859 L 8.6694243,299.90418 H 5.0654382 c -1.9821833,0 -3.8679006,-0.14136 -4.19040924,-0.31399 -0.8383934,-0.44865 -1.57701073,-0.0598 -1.57701073,0.82992 0,0.9093 0.79806668,1.30212 1.61235337,0.79356 0.3459827,-0.21615 1.9331133,-0.36458 3.8955047,-0.36458 h 3.3115753 v 0.81759 c 0,0.44971 -0.2377227,1.21999 -0.5281633,1.71176 -0.4450894,0.75347 -0.4618307,0.97411 -0.1063999,1.40246 0.6581853,0.79309 1.7508592,0.48773 1.6712826,-0.46699 z m 7.1527267,-3.3073 v -3.62229 h 8.013407 c 5.0025,0 8.086546,-0.11833 8.208087,-0.31511 0.127976,-0.20721 -2.775527,-0.3151 -8.475237,-0.3151 h -8.669918 l -0.08928,3.38605 -0.08928,3.38603 -1.338655,0.0967 -1.338655,0.0967 v -3.44276 -3.44275 l -7.1658237,-0.1968 c -3.94119,-0.10829 -7.5871413,-0.23251 -8.1020973,-0.27642 -0.710306,-0.0603 -0.9656634,0.0673 -1.0579627,0.52951 -0.2031253,1.01748 0.7521966,1.4644 2.0084486,0.93951 0.79773142,-0.33333 2.6248927,-0.44624 7.2202494,-0.44624 h 6.1522427 v 3.62229 3.62229 h 2.362355 2.362355 z m 14.271229,2.36236 c -0.03348,-0.43312 -0.177082,-1.35443 -0.31994,-2.04741 l -0.259673,-1.25989 -4.719725,-0.0789 c -2.784342,-0.0465 -5.005924,-0.22731 -5.417681,-0.44122 -0.537649,-0.27902 -0.808967,-0.27009 -1.181177,0.0387 -1.170612,0.97154 0.07329,2.65595 1.284414,1.73913 0.446987,-0.33854 1.670688,-0.45275 4.925715,-0.46026 4.312209,-0.011 4.330997,-0.007 4.330997,0.71444 0,0.39843 -0.155878,0.88023 -0.346355,1.07071 -0.190476,0.19048 -0.249256,0.65205 -0.13058,1.02624 0.162203,0.51131 0.423959,0.65591 1.05495,0.58292 0.679241,-0.0784 0.82768,-0.24703 0.778795,-0.88449 z m -37.4921737,-6.99741 c -0.668714,-1.39283 -0.70867,-1.87066 -0.23326,-2.78981 0.7919654,-1.53148 -0.4039073,-2.94502 -1.4376886,-1.69937 -0.3244053,0.39092 -0.3221733,0.72027 0.011136,1.7324 0.3426346,1.03776 0.3400306,1.46965 -0.01488,2.54677 -0.3933787,1.19196 -0.3793527,1.33266 0.1729919,1.73654 0.5273068,0.38556 0.6774194,0.36309 1.2241828,-0.18379 0.511422,-0.51141 0.5611993,-0.75222 0.2775306,-1.34281 z m 13.6927673,-3.24916 c 0.294644,-0.0959 0.393714,-1.48939 0.393714,-5.54345 v -5.41542 l 10.4731204,0.21355 c 5.760202,0.11759 11.054258,0.29799 11.764602,0.40096 1.439549,0.20908 1.972585,-0.33556 1.269533,-1.29721 -0.340029,-0.46502 -0.617151,-0.48831 -2.241111,-0.18824 -1.089772,0.20126 -6.045695,0.34264 -12.032052,0.34264 H 6.227493 v 5.19717 5.19719 H 2.1957536 c -2.36417803,0 -4.1668973,-0.13505 -4.3584526,-0.32664 -0.4936027,-0.4936 -2.0041706,0.18192 -2.0041706,0.89635 0,0.32181 0.064733,0.64982 0.1436025,0.72877 0.1707587,0.17075 10.233462,-0.0223 10.8021013,-0.20574 z m 30.1593884,-0.089 2.204877,-0.21614 0.157366,-4.59904 c 0.114587,-3.3464 0.280507,-4.74703 0.609712,-5.14242 0.392968,-0.47221 0.392968,-0.58092 0,-0.82958 -1.281885,-0.81116 -2.845615,0.0718 -2.031812,1.14747 0.342635,0.45299 0.459636,1.61139 0.46715,4.63003 l 0.01114,4.02594 -13.150432,-0.10083 c -7.232749,-0.0554 -13.467953,-0.21801 -13.856012,-0.36086 -0.576898,-0.21242 -0.756065,-0.12426 -0.982293,0.48471 -0.152158,0.40952 -0.222843,0.88635 -0.157367,1.0596 0.133558,0.35193 22.995649,0.26748 26.72869,-0.0986 z m -1.727421,-3.37541 c 0.3657,-0.68345 0.357887,-0.86514 -0.05469,-1.27779 -0.410864,-0.41082 -0.784115,-0.42824 -2.558375,-0.11944 -1.827718,0.31809 -17.863162,0.2634 -21.173025,-0.0726 -0.861237,-0.0874 -0.944943,-0.011 -0.944943,0.84907 v 0.94494 l 1.732406,-0.15736 c 0.952829,-0.0866 6.055516,-0.157 11.339305,-0.15626 6.984349,9.3e-4 9.778886,0.10561 10.236847,0.38416 0.868938,0.52819 0.938916,0.50877 1.422399,-0.39464 z m -36.6214521,-0.0443 5.1184234,-0.16853 v -5.33011 -5.33011 l 11.1030687,0.12985 c 6.10667,0.0715 11.599163,0.18117 12.205489,0.24404 0.922435,0.0956 1.117785,0.007 1.196394,-0.54331 0.136533,-0.95461 -0.759265,-1.61767 -1.532667,-1.13467 -0.435789,0.27232 -3.792454,0.37477 -12.258688,0.37477 H 2.7627189 v 5.38357 5.38357 l -4.6459527,-0.16965 c -2.5552879,-0.0934 -5.0532459,-0.21279 -5.5510139,-0.26524 -1.0271967,-0.1083 -1.6792073,0.60442 -1.3463193,1.47183 0.1670387,0.43531 0.4247406,0.50574 1.2312887,0.33668 0.56105,-0.11759 3.3233692,-0.2898 6.1385152,-0.38255 z m -4.9609465,-3.57821 c 2.6851986,-0.13728 5.2010885,-0.26228 5.59089522,-0.27753 0.66209138,-0.0261 0.7087813,-0.16778 0.70974801,-2.15395 6.3265e-4,-1.16939 0.09374696,-4.36444 0.20721736,-7.10016 l 0.20647457,-4.97404 5.69852134,0.141 c 3.134194,0.0777 6.1946531,0.18973 6.8009791,0.24925 0.93378,0.0915 1.117411,0.004 1.200298,-0.57924 0.120166,-0.84323 -1.017634,-1.58869 -1.638358,-1.07355 -0.2407,0.19978 -2.9374671,0.36384 -6.8307031,0.41559 l -6.43289731,0.0855 -0.0848263,7.21227 -0.0848262,7.21225 -4.7974407,-0.21802 c -2.6385833,-0.12016 -5.3289524,-0.30058 -5.9785814,-0.40167 -1.140329,-0.17708 -1.181177,-0.15104 -1.181177,0.74919 0,1.15636 0.273437,1.45026 1.094421,1.17608 0.350819,-0.11723 2.8349381,-0.32553 5.5201734,-0.46288 z m 27.0883266,0.0718 c 5.599785,-0.0691 9.067872,0.011 9.810173,0.23289 1.52943,0.45324 2.218976,0.16184 2.097398,-0.88668 -0.09561,-0.82549 -0.0971,-0.8259 -2.458151,-0.66849 -1.299295,0.0866 -4.630216,0.15736 -7.402058,0.15736 -2.771805,0 -6.669691,-0.0707 -8.661956,-0.15736 l -3.62229,-0.15737 -0.1064,0.75186 c -0.120534,0.8525 0.503386,1.40071 1.208745,1.06206 0.260044,-0.12463 4.370356,-0.2753 9.134427,-0.33407 z m -25.5134353,-3.351 c 0,-0.0762 -0.1417414,-0.22657 -0.3151041,-0.33371 -0.1733639,-0.10708 -0.3151053,-0.0447 -0.3151053,0.13876 0,0.18341 0.1417414,0.33371 0.3151053,0.33371 0.1733627,0 0.3151041,-0.0625 0.3151041,-0.13876 z m 1.6445719,-2.06597 c -0.04836,-0.60633 -0.1681559,-3.6122 -0.2667414,-6.6797 l -0.1785719,-5.57731 0.751712,-0.18862 c 0.713654,-0.17931 13.3512877,-0.007 15.6879737,0.21466 0.918564,0.0866 1.118118,-0.007 1.196392,-0.55331 0.148065,-1.03632 -0.67355,-1.52392 -1.86678,-1.10797 -0.615738,0.21466 -3.7877678,0.35008 -8.274829,0.35305 -4.00194135,0.002 -7.4333087,0.10903 -7.625236,0.23624 -0.2217267,0.14695 -0.4311393,2.45889 -0.574108,6.33573 -0.1305801,3.54427 -0.3727313,6.34063 -0.5770473,6.66775 -0.4595241,0.7358 0.2310279,1.62836 1.157554,1.49599 0.5440859,-0.0777 0.6423752,-0.28423 0.5697186,-1.19636 z m 8.0288814,-5.07475 c 0.5306939,-0.53065 16.762044,-0.49628 18.052486,0.0383 0.832144,0.34449 1.051192,0.33296 1.462837,-0.0788 0.313244,-0.31324 0.406772,-0.72794 0.264881,-1.17474 -0.203497,-0.64133 -0.335193,-0.67196 -1.843493,-0.42887 -1.759154,0.28348 -15.0275538,0.36087 -17.8358177,0.10414 -1.4788707,-0.13543 -1.738582,-0.0773 -1.8371307,0.40884 -0.2224707,1.09856 0.9831487,1.88401 1.736164,1.131 z M -10.46647,347.7813 c 0,-0.17337 0.141741,-0.31511 0.315105,-0.31511 0.1733627,0 0.315104,0.14174 0.315104,0.31511 0,0.17336 -0.1417413,0.3151 -0.315104,0.3151 -0.173364,0 -0.315105,-0.14174 -0.315105,-0.3151 z m -12.224426,-9.31001 c -1.934973,-2.10235 -5.265932,-6.58435 -6.189892,-8.32884 -0.137648,-0.25968 1.762355,1.52254 4.222144,3.96094 4.366598,4.32853 4.469984,4.46221 4.371323,5.65149 l -0.101187,1.21809 z m -81.058944,-16.64233 c -3.48785,-1.24588 -7.12048,-4.5089 -8.78595,-7.8919 -0.98605,-2.00295 -1.00793,-2.12958 -0.58915,-3.4105 l 0.43494,-1.33032 0.10376,1.18118 0.10377,1.18118 h 2.32475 c 2.69602,0 3.5148,0.54929 1.03151,0.69196 l -1.66187,0.0956 -0.0972,1.52616 c -0.0647,1.0147 0.0149,1.45711 0.23623,1.32009 0.18341,-0.11343 0.33333,-0.69383 0.33333,-1.28993 0,-1.07458 0.011,-1.08384 1.41742,-1.08384 1.04992,0 1.41741,0.12239 1.41741,0.47246 0,0.25968 0.21243,0.47247 0.47248,0.47247 0.34375,0 0.47247,0.35454 0.47247,1.30116 v 1.30112 l -1.10246,-0.17894 c -0.86116,-0.13988 -1.10243,-0.0726 -1.10243,0.30766 0,0.31398 0.17635,0.41863 0.49823,0.29502 0.27418,-0.10524 0.91186,-0.19123 1.41741,-0.19123 0.86239,0 0.91919,-0.0777 0.91919,-1.25994 0,-0.69292 0.14174,-1.25988 0.31511,-1.25988 0.18378,0 0.3151,1.05784 0.3151,2.54356 v 2.5436 l -0.977,-0.10267 c -0.5374,-0.0565 -0.97706,0.0394 -0.97706,0.21244 0,0.17336 0.42117,0.27082 0.9359,0.21688 0.58997,-0.0618 0.99923,0.0669 1.1073,0.3486 0.12612,0.32886 0.49055,0.39511 1.37981,0.25148 l 1.2084,-0.19532 0.16146,-3.14546 c 0.10646,-2.06961 0.25372,-2.95384 0.43092,-2.58515 0.14807,0.30802 0.20795,1.40669 0.13319,2.4411 -0.0748,1.03442 -0.0223,1.88078 0.12016,1.88078 0.141,0 0.25632,-0.9922 0.25632,-2.20489 0,-1.2599 0.13504,-2.20483 0.31511,-2.20483 0.18005,0 0.3151,0.94493 0.3151,2.20483 v 2.20489 h 1.417412 c 0.779577,0 1.48829,0 1.57489,0 0.08664,0 0.193087,-0.10647 0.236234,-0.23624 0.0432,-0.12984 -0.523654,-0.27977 -1.259924,-0.33296 l -1.338652,-0.0967 v -2.04784 c 0,-1.28505 0.11722,-1.97533 0.315096,-1.8532 0.17336,0.1072 0.3151,0.88133 0.3151,1.72057 v 1.52593 l 1.575122,0.10904 c 0.919898,0.0636 1.574999,-0.0223 1.574888,-0.20796 -1.12e-4,-0.18267 -0.601344,-0.26935 -1.417594,-0.20461 l -1.417414,0.1127 v -1.47861 c 0,-1.19947 0.115639,-1.50886 0.612274,-1.63873 0.336686,-0.0881 0.655654,-0.46459 0.708701,-0.83672 0.0733,-0.51485 0.351945,-0.70097 1.164701,-0.77861 l 1.068306,-0.10194 -0.172247,1.28319 c -0.118674,0.88412 -0.05432,1.28322 0.206101,1.28322 0.265253,0 0.327009,-0.44642 0.206101,-1.49617 -0.168898,-1.46874 -0.19494,-1.4994 -1.431884,-1.67374 -1.216592,-0.1715 -1.230139,-0.186 -0.393709,-0.4279 0.476373,-0.13764 1.220533,-0.16145 1.653644,-0.0525 0.544719,0.13652 0.787427,0.0684 0.787427,-0.22174 0,-0.29316 -0.450224,-0.41354 -1.496134,-0.3997 -1.318897,0.0186 -1.508116,-0.064 -1.596846,-0.68892 -0.06473,-0.45547 -0.318074,-0.7087 -0.708701,-0.7087 -0.512127,0 -0.60804,-0.22731 -0.60804,-1.44122 v -1.44119 l 1.413547,0.087 c 0.777423,0.0476 1.417116,-0.048 1.421543,-0.21242 0.0037,-0.16481 -0.694499,-0.34189 -1.553127,-0.39398 l -1.561123,-0.0945 -0.09667,1.43804 c -0.144726,2.15501 -0.713292,1.72786 -0.819762,-0.61605 l -0.093,-2.05022 h 1.116813 c 0.782746,0 1.116826,-0.14137 1.116826,-0.47248 0,-0.69471 0.200893,-0.60609 1.927828,0.85002 2.182703,1.84046 4.056814,4.71882 4.056814,6.23061 0,2.97684 -4.607857,9.20638 -7.922151,10.71033 -1.60239,0.72712 -1.92879,0.74565 -3.46626,0.19643 z m 224.4728,-0.78371 c -2.64368,-1.26908 -4.36277,-2.8763 -5.49063,-5.13334 -0.84692,-1.69487 -0.96024,-2.22977 -0.91604,-4.32486 0.0261,-1.31496 0.10756,-1.93013 0.17746,-1.36711 l 0.12686,1.02369 h 2.32381 c 2.69531,0 3.5134,0.5493 1.03058,0.69197 l -1.66191,0.0956 -0.0972,1.52617 c -0.0647,1.01469 0.0149,1.45709 0.23624,1.32008 0.1834,-0.11344 0.33333,-0.69382 0.33333,-1.28996 0,-1.07454 0.011,-1.08381 1.41741,-1.08381 1.04993,0 1.41742,0.1224 1.41742,0.47247 0,0.26005 0.21243,0.47247 0.47246,0.47247 0.34376,0 0.47248,0.35454 0.47248,1.30112 v 1.30112 l -1.10242,-0.17894 c -0.8612,-0.13988 -1.10246,-0.0726 -1.10246,0.30766 0,0.31398 0.17635,0.41867 0.49825,0.29502 0.27419,-0.10524 0.91187,-0.19123 1.41741,-0.19123 0.8624,0 0.91917,-0.0777 0.91917,-1.2599 0,-0.69296 0.14174,-1.25994 0.31511,-1.25994 0.18414,0 0.3151,1.05786 0.3151,2.54362 v 2.54356 l -0.97704,-0.1023 c -0.53736,-0.0565 -0.92717,0.0335 -0.86619,0.20089 0.0611,0.16667 0.48211,0.2645 0.93586,0.21689 0.48706,-0.051 0.89528,0.0963 0.99647,0.36012 0.12611,0.32887 0.49055,0.39513 1.37984,0.25111 l 1.20837,-0.19531 0.16146,-3.14546 c 0.10633,-2.06962 0.25372,-2.95381 0.43092,-2.58513 0.14807,0.30804 0.20795,1.40667 0.13317,2.44108 -0.0748,1.03444 -0.0223,1.88076 0.12017,1.88076 0.14101,0 0.25633,-0.99218 0.25633,-2.20483 0,-1.25994 0.13504,-2.20489 0.3151,-2.20489 0.18006,0 0.31511,0.94495 0.31511,2.20489 v 2.20483 h 1.41741 c 0.77958,0 1.48828,0 1.57489,0 0.0866,0 0.19308,-0.10634 0.23624,-0.23623 0.0436,-0.12984 -0.52363,-0.27976 -1.2599,-0.33296 l -1.3387,-0.0967 v -2.04784 c 0,-1.28501 0.11723,-1.97534 0.31512,-1.85316 0.17336,0.10719 0.3151,0.88132 0.3151,1.72057 v 1.52589 l 1.57507,0.10903 c 0.91995,0.0636 1.57504,-0.0223 1.57493,-0.20796 -1.1e-4,-0.18266 -0.60137,-0.26935 -1.41764,-0.20462 l -1.41741,0.1127 v -1.47861 c 0,-1.19948 0.11564,-1.50885 0.61227,-1.63873 0.33669,-0.0882 0.65567,-0.46458 0.70872,-0.83672 0.0733,-0.51484 0.35193,-0.70097 1.16473,-0.77861 l 1.06827,-0.10193 -0.17225,1.28318 c -0.1187,0.88412 -0.0547,1.28323 0.2061,1.28323 0.26526,0 0.32702,-0.44643 0.20647,-1.49617 -0.16889,-1.46875 -0.19493,-1.4994 -1.43191,-1.67374 -1.21656,-0.1715 -1.23011,-0.18638 -0.39371,-0.4279 0.4764,-0.13765 1.22053,-0.16146 1.65364,-0.0529 0.54472,0.13691 0.78746,0.0684 0.78746,-0.22172 0,-0.29316 -0.45026,-0.41354 -1.49617,-0.3997 -1.31889,0.0186 -1.50808,-0.064 -1.59681,-0.68892 -0.0647,-0.45547 -0.31807,-0.70871 -0.7087,-0.70871 -0.51216,0 -0.60807,-0.2273 -0.60807,-1.44122 v -1.44118 l 1.33869,0.0822 c 0.73627,0.0454 1.37597,-0.0502 1.42155,-0.21243 0.0454,-0.1622 -0.61965,-0.33742 -1.47828,-0.38936 l -1.56112,-0.0945 -0.0967,1.43802 c -0.14471,2.15502 -0.71324,1.72787 -0.81971,-0.61604 l -0.093,-2.05022 h 1.09372 c 0.73746,0 1.1269,-0.15997 1.19557,-0.49144 0.14882,-0.71793 2.26173,0.93557 3.44291,2.69427 2.12075,3.15774 2.31703,6.47616 0.59048,9.98331 -2.45979,4.99655 -7.56907,7.04518 -12.12105,4.86006 z m -225.68363,-4.26742 c 0,-1.46231 0.14174,-2.74635 0.3151,-2.85342 0.20015,-0.12351 0.3151,0.73169 0.3151,2.34379 0,1.4823 0.13096,2.53843 0.31511,2.53843 0.18192,0 0.3151,-0.99125 0.3151,-2.34379 0,-1.28906 0.14174,-2.43136 0.3151,-2.53843 0.20128,-0.12426 0.31512,0.83668 0.31512,2.65875 v 2.85342 h -0.94495 -0.94495 z m 227.10104,-0.3151 c 0,-1.46232 0.14174,-2.74636 0.3151,-2.85342 0.20016,-0.12352 0.31511,0.73169 0.31511,2.34378 0,1.48229 0.13095,2.53844 0.3151,2.53844 0.18193,0 0.3151,-0.99127 0.3151,-2.34379 0,-1.28907 0.14176,-2.43137 0.31512,-2.53843 0.20126,-0.12427 0.3151,0.83667 0.3151,2.65873 v 2.85344 h -0.94494 -0.94494 z m -157.233109,-5.77308 c -0.07589,-1.33917 -0.0558,-3.21447 0.04502,-4.1673 0.173734,-1.64569 0.194568,-1.67917 0.412872,-0.66931 0.321801,1.48884 0.287574,6.89604 -0.04502,7.10165 -0.151041,0.0934 -0.337054,-0.92582 -0.412872,-2.26504 z m -77.112471,-0.52451 c 0,-1.6349 0.41335,-2.42798 2.3632,-4.53405 2.39517,-2.58706 5.2287,-4.4634 6.74038,-4.4634 1.6009,0 3.940409,1.22251 4.068749,2.12612 0.08554,0.6029 -0.04393,0.7087 -0.866214,0.7087 h -0.966815 l -0.004,2.12613 c -0.002,1.16938 -0.13468,2.33133 -0.29353,2.58218 -0.49524,0.78281 -0.75238,-1.0731 -0.54863,-3.96017 0.13728,-1.94653 0.087,-2.6382 -0.19234,-2.63869 -0.27715,-6.4e-4 -0.35156,0.89383 -0.27864,3.3388 0.0688,2.30731 -0.004,3.27531 -0.23624,3.13189 -0.1849,-0.11417 -0.33594,-0.97879 -0.33594,-1.92139 0,-0.94259 -0.12834,-1.7138 -0.28497,-1.7138 -0.15662,0 -0.21019,0.55841 -0.1187,1.24088 0.21244,1.58416 -0.14099,3.18178 -0.55813,2.52248 -0.15886,-0.25074 -0.29056,-0.84584 -0.29353,-1.32224 -0.004,-0.65463 -0.15886,-0.86623 -0.63479,-0.86623 -0.52496,0 -0.62999,-0.20983 -0.62999,-1.2599 0,-0.80182 -0.14397,-1.25994 -0.39598,-1.25994 -0.27604,0 -0.36198,0.42936 -0.28311,1.41742 0.0997,1.25472 0.1994,1.41741 0.86845,1.41741 0.63297,0 0.75573,0.15662 0.75573,0.96355 0,0.56212 -0.13133,0.88244 -0.3151,0.76885 -0.17336,-0.10707 -0.3151,-0.46978 -0.3151,-0.80605 0,-0.50328 -0.22285,-0.61136 -1.25994,-0.61136 -0.69294,0 -1.2599,0.14174 -1.2599,0.31511 0,0.17336 -0.49609,0.3151 -1.10246,0.3151 -0.71677,0 -1.10242,0.14918 -1.10242,0.42623 0,0.32069 0.40946,0.39405 1.65365,0.29651 1.46664,-0.11527 1.5913,-0.0793 1.10242,0.31733 -0.30319,0.24591 -0.55119,0.60867 -0.55119,0.8061 0,0.2288 -0.68546,0.35901 -1.88989,0.35901 -1.04996,0 -1.88988,0.13988 -1.88988,0.3151 0,0.17523 0.84613,0.31511 1.90846,0.31511 1.1921,0 1.83541,0.11833 1.7138,0.3151 -0.1072,0.17336 -1.1785,0.3151 -2.38092,0.3151 h -2.18627 z m 227.18218,-1.11258 c 0.1083,-1.42139 0.35416,-2.15603 1.00848,-3.01384 1.93847,-2.54149 5.57323,-4.21571 8.59604,-3.95946 0.28683,0.0261 0.39371,0.89483 0.39371,3.20175 0,2.03208 -0.11307,3.0986 -0.3151,2.97374 -0.17338,-0.10719 -0.31512,-0.96588 -0.31512,-1.90848 0,-0.94256 -0.12834,-1.7138 -0.28496,-1.7138 -0.15663,0 -0.2102,0.55841 -0.11869,1.24092 0.21243,1.58412 -0.141,3.18178 -0.55819,2.52244 -0.15848,-0.25074 -0.29054,-0.84584 -0.29315,-1.32226 -0.004,-0.65461 -0.15886,-0.86617 -0.63479,-0.86617 -0.52496,0 -0.62994,-0.20983 -0.62994,-1.25994 0,-0.80179 -0.14398,-1.25994 -0.39603,-1.25994 -0.27604,0 -0.36198,0.4294 -0.28311,1.41742 0.0997,1.25476 0.19941,1.41741 0.86849,1.41741 0.63297,0 0.75574,0.15662 0.75574,0.96355 0,0.56216 -0.13133,0.88244 -0.31511,0.76885 -0.17336,-0.10719 -0.3151,-0.46978 -0.3151,-0.80602 0,-0.50328 -0.22285,-0.61139 -1.2599,-0.61139 -0.69298,0 -1.25994,0.14174 -1.25994,0.31511 0,0.17336 -0.49609,0.3151 -1.10242,0.3151 -0.71681,0 -1.10245,0.14918 -1.10245,0.42623 0,0.32069 0.40945,0.39409 1.65365,0.29651 1.46666,-0.11527 1.59133,-0.0793 1.10245,0.31733 -0.3032,0.24591 -0.55123,0.60867 -0.55123,0.80614 0,0.22879 -0.68545,0.35901 -1.88988,0.35901 -1.04993,0 -1.88989,0.13988 -1.88989,0.3151 0,0.17522 0.84613,0.3151 1.90849,0.3151 1.19211,0 1.83538,0.11833 1.7138,0.31511 -0.10719,0.17336 -1.19248,0.3151 -2.41201,0.3151 h -2.21734 z m -220.96689,-0.61369 c -0.1138,-0.43561 -0.0223,-0.65658 0.27121,-0.65658 0.50242,0 0.55487,0.28087 0.16703,0.89281 -0.20275,0.31957 -0.30766,0.26302 -0.43816,-0.23623 z m 227.10104,-0.3151 c -0.1138,-0.43561 -0.0223,-0.6566 0.27121,-0.6566 0.50242,0 0.55492,0.28089 0.16705,0.89283 -0.20239,0.31957 -0.30768,0.26302 -0.43818,-0.23623 z m 4.31825,-0.14473 c -0.24555,-0.97872 -0.0261,-5.45313 0.28087,-5.76154 0.36384,-0.36384 2.25115,0.38107 2.35689,0.93003 0.08,0.41547 -0.11943,0.54007 -0.86403,0.54007 h -0.96804 l -0.004,2.12612 c -0.004,2.41742 -0.4417,3.59669 -0.80093,2.16532 z m -78.875879,-22.79657 0.0075,-3.38605 0.932145,1.10246 c 0.512687,0.60632 1.104318,1.56305 1.314734,2.12611 0.210566,0.56302 0.49297,1.02367 0.627866,1.02367 0.135045,0 0.534562,0.56696 0.888059,1.25993 l 0.642784,1.25994 h -2.2113 -2.211276 z m -74.658867,-0.28534 c 0,-0.11344 0.370164,-0.69171 0.822359,-1.28468 0.787427,-1.03241 0.885902,-1.06946 2.319572,-0.87225 1.201155,0.16519 1.534824,0.10793 1.687577,-0.29017 0.387278,-1.00919 -0.122768,-1.51995 -1.33259,-1.33446 l -1.134564,0.17412 1.496134,-1.37263 c 0.82288,-0.75496 1.496171,-1.50209 1.496171,-1.6603 0,-0.15812 0.354539,-0.62055 0.787463,-1.02743 l 0.787427,-0.73977 v 4.30715 4.30715 h -3.464774 c -1.905621,0 -3.464775,-0.093 -3.464775,-0.20648 z m -62.474397,-1.35815 c -0.244048,-1.22061 -2.150822,-2.62203 -6.821365,-5.01362 -6.452092,-3.30385 -12.044482,-5.06493 -14.149612,-4.45582 -1.43345,0.41474 -1.95648,-0.004 -1.59152,-1.27775 1.12054,-3.90707 3.6949,-4.85348 15.769179,-5.79708 3.535983,-0.2764 6.527878,-0.53169 6.648638,-0.56745 0.120913,-0.0372 -2.328427,-2.73649 -5.442718,-6.00167 -3.11429,-3.26519 -5.941599,-6.48417 -6.282979,-7.15326 -0.83489,-1.63649 -0.78125,-3.00056 0.19495,-4.95961 0.8814,-1.76874 1.52485,-2.07935 1.82553,-0.88125 0.480722,1.91526 10.539556,6.77375 17.415981,8.41199 2.230063,0.53133 2.970019,0.59342 3.746249,0.31437 1.326267,-0.47653 1.395054,-0.45529 1.395054,0.43091 0,1.46351 -3.287505,7.72603 -4.055773,7.72603 -0.15625,0 -0.37634,-0.49301 -0.489361,-1.09555 -0.359376,-1.91626 -2.022362,-2.96108 -7.086768,-4.45298 -2.548925,-0.75082 -4.518274,-1.18148 -4.623631,-1.01102 -0.269346,0.43605 1.066259,2.22126 4.318868,5.77208 3.588326,3.9173 5.74949,6.78565 5.386394,7.14874 -0.570649,0.57066 -3.941934,0.88036 -11.815794,1.08543 l -8.129179,0.21168 4.03446,2.1397 c 4.870204,2.583 7.65291,3.53125 10.458979,3.56417 l 2.079913,0.0261 0.09599,1.15018 c 0.103427,1.23981 -0.499702,2.96429 -1.607331,4.59606 -0.856511,1.26176 -1.03739,1.27467 -1.274109,0.0912 z m 203.035233,-3.32363 c -2.87099,-1.4538 -5.24688,-4.93432 -5.64123,-8.264 -0.31138,-2.62768 0.55677,-4.88669 2.70171,-7.03167 2.27679,-2.27679 4.23614,-2.95912 7.87297,-2.74179 2.91685,0.17448 4.49152,0.91469 6.28948,2.9573 1.57419,1.78835 2.24175,3.84238 2.24175,6.89745 0,4.27046 -2.12129,6.79852 -6.90418,8.22798 -3.06355,0.91559 -4.68505,0.90443 -6.5605,-0.0454 z m 3.8012,-4.08718 c 2.42549,-0.63177 4.08701,-1.51648 5.78174,-3.07861 2.3789,-2.19282 2.87139,-3.83729 1.624,-5.42303 -2.33308,-2.96608 -9.34772,-1.88792 -13.67633,2.10208 -1.84383,1.69956 -2.34137,3.26478 -1.50067,4.7208 1.18623,2.0544 3.99752,2.66169 7.77126,1.67876 z m -98.370145,-7.00983 c 0.0026,-1.34259 0.179688,-2.93717 0.393751,-3.54352 0.33073,-0.93755 0.516147,-1.08773 1.239362,-1.00429 0.787576,0.0908 0.857405,0.21912 0.944942,1.73241 l 0.09449,1.63422 4.574748,0.0297 c 3.10179,0.0186 4.821324,0.16147 5.340485,0.43937 l 0.7657,0.40977 -1.560716,1.36534 -1.560717,1.36529 -5.118424,0.007 -5.118424,0.007 0.0037,-2.44112 z m 3.460051,-2.94863 c 0,-0.95804 0.02604,-0.97511 1.156066,-0.76309 0.635864,0.11943 2.017823,0.5504 3.071061,0.95804 l 1.914997,0.74118 -3.071063,0.0223 -3.071061,0.0223 z m 49.980812,-30.9851 c -2.928427,-1.12027 -5.571401,-4.63701 -5.132858,-6.82973 0.367188,-1.83534 1.481327,-2.3959 2.507817,-1.26164 0.381102,0.42113 0.52128,1.17206 0.52128,2.79234 0,1.76525 0.132814,2.38523 0.65283,3.04628 1.49896,1.90562 5.284904,0.55201 9.129962,-3.26426 3.918236,-3.88891 6.401573,-8.76511 6.217198,-12.20798 -0.07887,-1.47503 -0.225818,-1.8436 -0.948513,-2.38158 -0.76053,-0.56608 -0.994049,-0.59484 -2.111946,-0.26005 -2.769424,0.82976 -4.881146,3.71846 -4.89759,6.69967 -0.0075,1.47664 0.126488,1.94254 0.753685,2.61096 0.420016,0.44746 0.929576,0.81357 1.132368,0.81357 0.551079,0 1.503908,1.17027 1.26611,1.55506 -0.375186,0.60704 -1.913322,0.34933 -3.348704,-0.5609 -2.398702,-1.52117 -4.69558,-4.63997 -4.69558,-6.37571 0,-3.04569 5.127055,-7.53265 8.607268,-7.53265 1.670911,0 4.740856,1.48743 6.404402,3.10306 2.672846,2.59584 2.641819,5.26686 -0.128722,11.06943 -2.71161,5.67926 -7.275012,9.13555 -12.339046,9.34553 -1.556066,0.0644 -2.805286,-0.0614 -3.590034,-0.36162 z m -124.167914,-8.58865 c -0.01114,-2.42699 -0.676378,-4.15702 -3.591524,-9.33076 -2.545279,-4.51723 -5.436877,-7.99026 -7.581113,-9.10548 -0.95283,-0.49557 -1.732408,-1.06812 -1.732408,-1.27239 0,-0.20425 0.850448,-0.83791 1.889886,-1.40815 1.805136,-0.9903 2.009935,-1.03062 4.567231,-0.89942 2.27984,0.11687 3.495654,0.42792 8.189486,2.09431 7.760392,2.75511 12.287669,4.1957 12.50441,3.97892 0.689659,-0.68966 -2.944834,-6.44881 -6.154214,-9.75184 -1.892711,-1.94795 -3.078056,-2.73218 -4.129694,-2.73218 -1.032219,0 -0.760902,-0.52418 0.986237,-1.90521 1.872213,-1.47991 3.538027,-2.38974 4.669613,-2.55046 0.693565,-0.0986 0.77794,-0.004 0.720202,0.79934 -0.109007,1.51729 1.632964,5.45927 4.824822,10.91843 3.988958,6.82252 5.223818,9.27576 5.276459,10.48268 0.04241,0.96883 0.0028,0.99919 -1.413544,1.09097 -1.625375,0.10523 -4.16433,-0.66864 -13.976994,-4.26065 -6.317421,-2.31254 -8.890454,-3.11232 -9.156637,-2.8461 -0.556772,0.55673 3.663659,8.22967 6.17661,11.22934 1.501862,1.79278 1.907331,2.0962 2.913546,2.18039 1.4487,0.12127 1.494905,0.61146 0.196801,2.08974 -0.906289,1.03222 -4.282485,3.32463 -4.8964,3.32463 -0.150669,0 -0.277902,-0.95673 -0.282738,-2.12611 z m 70.130399,-18.68795 c -2.03702,-0.35602 -4.320133,-1.32582 -5.352837,-2.27363 -1.217375,-1.11733 -2.7867598,-3.76009 -3.5192758,-5.92624 -0.8727693,-2.58102 -0.743342,-6.45574 0.306548,-9.17813 1.8995578,-4.92542 6.5878828,-8.14042 11.9922808,-8.22357 4.175305,-0.0644 7.436137,1.68334 9.909095,5.31066 3.297549,4.83687 3.544908,11.04915 0.617709,15.51348 -1.350077,2.05901 -3.135124,3.37482 -5.61928,4.14209 -2.397139,0.7404 -6.112733,1.02366 -8.334278,0.63534 z m 5.648707,-2.12355 c 4.526198,-2.87333 6.617794,-10.88782 4.3932,-16.83363 -1.52824,-4.08457 -6.153508,-6.26604 -9.240492,-4.35818 -3.210385,1.98411 -5.050864,7.84491 -4.306741,13.71412 0.31064,2.44978 1.417934,5.41916 2.4583,6.59208 1.764512,1.98933 4.40663,2.33881 6.695733,0.88561 z"
       id="path24"
       inkscape:export-xdpi="96"
       inkscape:export-ydpi="96" />
  </g>
</svg>
